# xmcd
#
# Track frame offsets:
#  150
#  6362
#  24047
#  51965
#  73017
#  78485
#  94872
#  113045
#  134270
#  152572
#  155500
#  178167
#  196985
#  218587
#  253385
#
# Disc length: 4286 seconds
#
# Revision: 0
# Processed by: cddbd v1.5.1PL0 Copyright (c) Steve Scherf et al.
# Submitted via: Collectorz.com Music Collector 6.9
#
DISCID=c810bc0f
DTITLE=the rees shad band - The Riggley Road Stories
DYEAR=1998
DGENRE=
TTITLE0=Repo's Introduction
TTITLE1=The Accident
TTITLE2=Incident On Riggley Road
TTITLE3=The Day They Took James Kennedy
TTITLE4=Repo-Man's Theme
TTITLE5=Sylvia's Eyes
TTITLE6=Stone In My Shoe
TTITLE7=Envy Of Red Tail
TTITLE8=The Mrs. and Me
TTITLE9=Repo-Man's Reprise
TTITLE10=I Don't Venture Out
TTITLE11=Stephen Leon's Moon
TTITLE12=Wash Away
TTITLE13=Footprints On Landscapes
TTITLE14=Data track
EXTD=
EXTT0=
EXTT1=
EXTT2=
EXTT3=
EXTT4=
EXTT5=
EXTT6=
EXTT7=
EXTT8=
EXTT9=
EXTT10=
EXTT11=
EXTT12=
EXTT13=
EXTT14=
PLAYORDER=
